<?xml version="1.0" encoding="iso-8859-1"?>
<!-- Generator: Adobe Illustrator 19.0.0, SVG Export Plug-In . SVG Version: 6.00 Build 0)  -->
<svg version="1.1" id="Capa_1" xmlns="http://www.w3.org/2000/svg" xmlns:xlink="http://www.w3.org/1999/xlink" x="0px" y="0px"
	 viewBox="0 0 402.773 402.773" style="enable-background:new 0 0 402.773 402.773;" xml:space="preserve">
<g>
	<ellipse style="fill:#00E7FF;" cx="201.387" cy="361.813" rx="191.147" ry="34.133"/>
	<path style="fill:#00E7FF;" d="M201.387,402.773c-8.083,0-197.973-0.466-197.973-40.96s189.891-40.96,197.973-40.96
		s197.973,0.466,197.973,40.96C399.36,402.307,209.469,402.773,201.387,402.773z M201.387,334.507
		c-116.176,0-181.753,17.847-184.33,27.416c2.577,9.351,68.154,27.197,184.33,27.197c115.736,0,181.257-17.713,184.3-27.307
		C382.643,352.22,317.123,334.507,201.387,334.507z M385.717,361.923h0.07H385.717z"/>
</g>
<path style="fill:#FFFFFF;" d="M337.92,291.023c0,27.805-11.226,54.431-31.135,73.841l-10.877,10.604l-46.211-40.96l-48.311,40.96
	l-47.788-40.96l-47.259,40.96L95.526,364.79c-19.625-19.378-30.672-45.807-30.672-73.385V143.36
	c0-75.406,61.128-136.533,136.533-136.533l0,0c75.406,0,136.533,61.128,136.533,136.533v107.745"/>
<path style="fill:#602F75;" d="M106.341,382.293c-1.737,0-3.47-0.66-4.797-1.966L90.726,369.65
	c-20.78-20.524-32.7-49.041-32.7-78.247V143.36C58.027,64.311,122.337,0,201.387,0s143.36,64.311,143.36,143.36v107.747
	c0,3.77-3.057,6.827-6.827,6.827s-6.827-3.057-6.827-6.827V143.36c0-71.52-58.187-129.707-129.707-129.707S71.68,71.84,71.68,143.36
	v148.043c0,25.58,10.44,50.557,28.64,68.53l6.32,6.236l42.487-36.823c2.55-2.214,6.344-2.224,8.914-0.024l43.37,37.173
	l43.873-37.197c2.591-2.193,6.403-2.154,8.94,0.097l41.463,36.75l6.33-6.17c18.48-18.016,29.077-43.145,29.077-68.953
	c0-3.77,3.057-6.827,6.827-6.827s6.827,3.057,6.827,6.827c0,29.464-12.1,58.16-33.196,78.727l-10.877,10.604
	c-2.567,2.497-6.624,2.591-9.293,0.224l-41.783-37.036l-43.796,37.134c-2.56,2.167-6.31,2.157-8.856-0.024l-43.32-37.13
	l-42.813,37.106C109.524,381.74,107.93,382.293,106.341,382.293z"/>
<circle style="fill:#FFE600;" cx="252.587" cy="133.12" r="30.72"/>
<path style="fill:#602F75;" d="M252.587,170.667c-20.704,0-37.547-16.843-37.547-37.547s16.843-37.547,37.547-37.547
	s37.547,16.843,37.547,37.547S273.29,170.667,252.587,170.667z M252.587,109.227c-13.174,0-23.893,10.72-23.893,23.893
	c0,13.174,10.72,23.893,23.893,23.893c13.174,0,23.893-10.72,23.893-23.893C276.48,119.946,265.76,109.227,252.587,109.227z"/>
<circle style="fill:#EA3457;" cx="252.587" cy="153.6" r="17.067"/>
<circle style="fill:#FFE600;" cx="150.187" cy="133.12" r="30.72"/>
<path style="fill:#602F75;" d="M150.187,170.667c-20.704,0-37.547-16.843-37.547-37.547s16.843-37.547,37.547-37.547
	s37.547,16.843,37.547,37.547S170.89,170.667,150.187,170.667z M150.187,109.227c-13.174,0-23.893,10.72-23.893,23.893
	c0,13.174,10.72,23.893,23.893,23.893c13.174,0,23.893-10.72,23.893-23.893C174.08,119.946,163.36,109.227,150.187,109.227z"/>
<circle style="fill:#EA3457;" cx="150.187" cy="153.6" r="17.067"/>
<g>
</g>
<g>
</g>
<g>
</g>
<g>
</g>
<g>
</g>
<g>
</g>
<g>
</g>
<g>
</g>
<g>
</g>
<g>
</g>
<g>
</g>
<g>
</g>
<g>
</g>
<g>
</g>
<g>
</g>
</svg>
