<?xml version="1.0" encoding="iso-8859-1"?>
<!-- Generator: Adobe Illustrator 19.0.0, SVG Export Plug-In . SVG Version: 6.00 Build 0)  -->
<svg version="1.1" id="Layer_1" xmlns="http://www.w3.org/2000/svg" xmlns:xlink="http://www.w3.org/1999/xlink" x="0px" y="0px"
	 viewBox="0 0 512 512" style="enable-background:new 0 0 512 512;" xml:space="preserve">
<path d="M80.576,409.312v52.24c0,22.144-18.128,40.256-40.288,40.256l0,0C18.128,501.808,0,483.696,0,461.552v-52.24"/>
<path d="M224.384,409.312v52.24c0,22.144-18.128,40.256-40.288,40.256l0,0c-22.16,0-40.288-18.112-40.288-40.256v-52.24"/>
<path d="M368.192,409.312v52.24c0,22.144-18.128,40.256-40.288,40.256l0,0c-22.16,0-40.288-18.112-40.288-40.256v-52.24"/>
<path d="M512,409.312v52.24c0,22.144-18.128,40.256-40.288,40.256l0,0c-22.16,0-40.288-18.112-40.288-40.256v-52.24"/>
<path style="fill:#E21B1B;" d="M512,424.048V265.92c0-140.656-115.2-255.728-256-255.728l0,0C115.2,10.192,0,125.264,0,265.92
	v158.128L512,424.048z"/>
<g>
	<path style="fill:#FFFFFF;" d="M165.576,273.672h-0.056c-25.408,0-46.208-20.8-46.208-46.208v-29.28
		c0-25.408,20.8-46.208,46.208-46.208h0.056c25.408,0,46.208,20.8,46.208,46.208v29.28
		C211.784,252.872,190.984,273.672,165.576,273.672z"/>
	<path style="fill:#FFFFFF;" d="M346.48,273.672h-0.056c-25.408,0-46.208-20.8-46.208-46.208v-29.28
		c0-25.408,20.8-46.208,46.208-46.208h0.056c25.408,0,46.208,20.8,46.208,46.208v29.28
		C392.688,252.872,371.888,273.672,346.48,273.672z"/>
</g>
<circle cx="167.752" cy="210.616" r="19.072"/>
<circle cx="347.2" cy="210.616" r="19.072"/>
<g>
</g>
<g>
</g>
<g>
</g>
<g>
</g>
<g>
</g>
<g>
</g>
<g>
</g>
<g>
</g>
<g>
</g>
<g>
</g>
<g>
</g>
<g>
</g>
<g>
</g>
<g>
</g>
<g>
</g>
</svg>
