<svg height="368pt" viewBox="-64 0 368 368" width="368pt" xmlns="http://www.w3.org/2000/svg"><path d="m8 360c0-17.679688 14.320312-32 32-32s32 14.320312 32 32c0-26.480469 21.519531-48 48-48s48 21.519531 48 48c0-17.679688 14.320312-32 32-32s32 14.320312 32 32v-240c0-61.839844-50.160156-112-112-112s-112 50.160156-112 112zm136-256c0-8.800781 7.199219-16 16-16 4.398438 0 8.398438 1.761719 11.28125 4.71875 2.957031 2.882812 4.71875 6.882812 4.71875 11.28125v48c0 8.800781-7.199219 16-16 16s-16-7.199219-16-16zm-80 0c0-8.800781 7.199219-16 16-16 4.398438 0 8.398438 1.761719 11.28125 4.71875 2.957031 2.882812 4.71875 6.882812 4.71875 11.28125v48c0 8.800781-7.199219 16-16 16s-16-7.199219-16-16zm0 0" fill="#cce4ff"/><g fill="#007aff"><path d="m16 360c0-13.230469 10.769531-24 24-24s24 10.769531 24 24c0 4.425781 3.585938 8 8 8s8-3.574219 8-8c0-22.054688 17.945312-40 40-40s40 17.945312 40 40c0 4.425781 3.585938 8 8 8s8-3.574219 8-8c0-13.230469 10.769531-24 24-24s24 10.769531 24 24c0 4.425781 3.585938 8 8 8s8-3.574219 8-8v-240c0-66.167969-53.832031-120-120-120s-120 53.832031-120 120v240c0 4.425781 3.585938 8 8 8s8-3.574219 8-8zm0-240c0-57.34375 46.65625-104 104-104s104 46.65625 104 104v208.015625c-6.6875-5.03125-15-8.015625-24-8.015625-12.152344 0-23.054688 5.449219-30.390625 14.023438-9.386719-17.839844-28.097656-30.023438-49.609375-30.023438s-40.222656 12.183594-49.609375 30.023438c-7.335937-8.574219-18.238281-14.023438-30.390625-14.023438-9 0-17.3125 2.984375-24 8.015625zm0 0"/><path d="m80 176c13.230469 0 24-10.769531 24-24v-48c0-13.230469-10.769531-24-24-24s-24 10.769531-24 24v48c0 13.230469 10.769531 24 24 24zm-8-72c0-4.40625 3.59375-8 8-8s8 3.59375 8 8v48c0 4.40625-3.59375 8-8 8s-8-3.59375-8-8zm0 0"/><path d="m160 176c13.230469 0 24-10.769531 24-24v-48c0-13.230469-10.769531-24-24-24s-24 10.769531-24 24v48c0 13.230469 10.769531 24 24 24zm-8-72c0-4.40625 3.59375-8 8-8s8 3.59375 8 8v48c0 4.40625-3.59375 8-8 8s-8-3.59375-8-8zm0 0"/><path d="m64 272c17.648438 0 32-14.351562 32-32 0-4.425781-3.585938-8-8-8s-8 3.574219-8 8c0 8.824219-7.175781 16-16 16s-16-7.175781-16-16c0-4.425781-3.585938-8-8-8s-8 3.574219-8 8c0 17.648438 14.351562 32 32 32zm0 0"/><path d="m160 240c0-4.425781-3.585938-8-8-8s-8 3.574219-8 8c0 17.648438 14.351562 32 32 32s32-14.351562 32-32c0-4.425781-3.585938-8-8-8s-8 3.574219-8 8c0 8.824219-7.175781 16-16 16s-16-7.175781-16-16zm0 0"/></g></svg>